<?xml version="1.0" standalone="no"?>
<!DOCTYPE svg PUBLIC "-//W3C//DTD SVG 20010904//EN"
 "http://www.w3.org/TR/2001/REC-SVG-20010904/DTD/svg10.dtd">
<svg version="1.0" xmlns="http://www.w3.org/2000/svg"
 width="1024.000000pt" height="1024.000000pt" viewBox="0 0 1024.000000 1024.000000"
 preserveAspectRatio="xMidYMid meet">
<metadata>
Created by potrace 1.14, written by Peter Selinger 2001-2017
</metadata>
<g transform="translate(0.000000,1024.000000) scale(0.100000,-0.100000)"
fill="#000000" stroke="none">
<path d="M3379 8193 c0 -4 0 -1004 1 -2220 l1 -2213 -650 0 -651 0 0 -235 0
-235 -252 -2 -253 -3 0 -485 0 -485 258 -3 257 -2 0 -236 0 -235 898 6 897 6
5 232 5 232 242 -3 c152 -2 249 1 261 7 19 10 19 50 14 2174 l-5 2164 843 6
c464 4 1045 7 1292 7 l448 0 0 -1010 0 -1010 -592 -2 -593 -3 -3 -217 -2 -218
-28 0 c-15 0 -128 -2 -252 -3 l-225 -2 -2 -703 c-2 -541 1 -704 10 -707 13 -5
250 -13 400 -14 l97 -1 0 -230 0 -230 855 0 855 0 0 240 0 240 255 0 255 0 1
818 c1 449 2 1660 2 2689 l1 1873 -2240 4 c-1231 3 -2276 8 -2321 12 -46 3
-83 2 -84 -3z m501 -5154 l0 -242 -885 4 -885 4 0 232 0 233 448 2 c246 2 644
4 885 6 l437 3 0 -242z m3625 4 c-3 -130 -7 -238 -8 -239 -1 -1 -381 -4 -844
-6 l-843 -3 0 242 0 243 850 0 851 0 -6 -237z"/>
<path d="M10080 80 l0 -80 80 0 80 0 0 80 0 80 -80 0 -80 0 0 -80z"/>
</g>
</svg>
